<svg id="visual" viewBox="0 0 900 600" width="900" height="600" xmlns="http://www.w3.org/2000/svg" xmlns:xlink="http://www.w3.org/1999/xlink" version="1.1"><path d="M0 67L18.8 67C37.7 67 75.3 67 112.8 74C150.3 81 187.7 95 225.2 99C262.7 103 300.3 97 337.8 101C375.3 105 412.7 119 450.2 114C487.7 109 525.3 85 562.8 82C600.3 79 637.7 97 675.2 100C712.7 103 750.3 91 787.8 96C825.3 101 862.7 123 881.3 134L900 145L900 0L881.3 0C862.7 0 825.3 0 787.8 0C750.3 0 712.7 0 675.2 0C637.7 0 600.3 0 562.8 0C525.3 0 487.7 0 450.2 0C412.7 0 375.3 0 337.8 0C300.3 0 262.7 0 225.2 0C187.7 0 150.3 0 112.8 0C75.3 0 37.7 0 18.8 0L0 0Z" fill="#82ffe1"></path><path d="M0 151L18.8 153C37.7 155 75.3 159 112.8 166C150.3 173 187.7 183 225.2 181C262.7 179 300.3 165 337.8 166C375.3 167 412.7 183 450.2 178C487.7 173 525.3 147 562.8 143C600.3 139 637.7 157 675.2 158C712.7 159 750.3 143 787.8 147C825.3 151 862.7 175 881.3 187L900 199L900 143L881.3 132C862.7 121 825.3 99 787.8 94C750.3 89 712.7 101 675.2 98C637.7 95 600.3 77 562.8 80C525.3 83 487.7 107 450.2 112C412.7 117 375.3 103 337.8 99C300.3 95 262.7 101 225.2 97C187.7 93 150.3 79 112.8 72C75.3 65 37.7 65 18.8 65L0 65Z" fill="#5dfed9"></path><path d="M0 373L18.8 369C37.7 365 75.3 357 112.8 363C150.3 369 187.7 389 225.2 397C262.7 405 300.3 401 337.8 387C375.3 373 412.7 349 450.2 347C487.7 345 525.3 365 562.8 373C600.3 381 637.7 377 675.2 370C712.7 363 750.3 353 787.8 347C825.3 341 862.7 339 881.3 338L900 337L900 197L881.3 185C862.7 173 825.3 149 787.8 145C750.3 141 712.7 157 675.2 156C637.7 155 600.3 137 562.8 141C525.3 145 487.7 171 450.2 176C412.7 181 375.3 165 337.8 164C300.3 163 262.7 177 225.2 179C187.7 181 150.3 171 112.8 164C75.3 157 37.7 153 18.8 151L0 149Z" fill="#16fdd0"></path><path d="M0 541L18.8 538C37.7 535 75.3 529 112.8 530C150.3 531 187.7 539 225.2 538C262.7 537 300.3 527 337.8 517C375.3 507 412.7 497 450.2 494C487.7 491 525.3 495 562.8 500C600.3 505 637.7 511 675.2 517C712.7 523 750.3 529 787.8 533C825.3 537 862.7 539 881.3 540L900 541L900 335L881.3 336C862.7 337 825.3 339 787.8 345C750.3 351 712.7 361 675.2 368C637.7 375 600.3 379 562.8 371C525.3 363 487.7 343 450.2 345C412.7 347 375.3 371 337.8 385C300.3 399 262.7 403 225.2 395C187.7 387 150.3 367 112.8 361C75.3 355 37.7 363 18.8 367L0 371Z" fill="#10dcb5"></path><path d="M0 601L18.8 601C37.7 601 75.3 601 112.8 601C150.3 601 187.7 601 225.2 601C262.7 601 300.3 601 337.8 601C375.3 601 412.7 601 450.2 601C487.7 601 525.3 601 562.8 601C600.3 601 637.7 601 675.2 601C712.7 601 750.3 601 787.8 601C825.3 601 862.7 601 881.3 601L900 601L900 539L881.3 538C862.7 537 825.3 535 787.8 531C750.3 527 712.7 521 675.2 515C637.7 509 600.3 503 562.8 498C525.3 493 487.7 489 450.2 492C412.7 495 375.3 505 337.8 515C300.3 525 262.7 535 225.2 536C187.7 537 150.3 529 112.8 528C75.3 527 37.7 533 18.8 536L0 539Z" fill="#0abb9a"></path></svg>