<?xml version="1.0" standalone="no"?><svg xmlns="http://www.w3.org/2000/svg" viewBox="0 0 1440 320"><path fill="#00cba9" fill-opacity="10" d="M0,64L26.7,85.3C53.3,107,107,149,160,149.3C213.3,149,267,107,320,96C373.3,85,427,107,480,106.7C533.3,107,587,85,640,106.7C693.3,128,747,192,800,229.3C853.3,267,907,277,960,266.7C1013.3,256,1067,224,1120,202.7C1173.3,181,1227,171,1280,160C1333.3,149,1387,139,1413,133.3L1440,128L1440,320L1413.3,320C1386.7,320,1333,320,1280,320C1226.7,320,1173,320,1120,320C1066.7,320,1013,320,960,320C906.7,320,853,320,800,320C746.7,320,693,320,640,320C586.7,320,533,320,480,320C426.7,320,373,320,320,320C266.7,320,213,320,160,320C106.7,320,53,320,27,320L0,320Z"></path></svg>